<svg width="96" height="96" viewBox="0 0 96 96" fill="none" xmlns="http://www.w3.org/2000/svg">
<g clip-path="url(#clip0_1_424)">
<rect width="96" height="96" rx="4" fill="#F4F4F4"/>
<rect width="96" height="96" fill="url(#paint0_linear_1_424)"/>
<g style="mix-blend-mode:multiply">
<g style="mix-blend-mode:multiply" opacity="0.01">
<path d="M14.5184 50.5771C14.5184 49.6768 31.8446 43.2768 48.4601 43.2768C65.0756 43.2768 81.4451 49.6768 81.4451 50.5771C81.4451 52.2496 65.0893 52.7659 48.4875 52.7659C31.8856 52.7659 14.5184 52.2496 14.5184 50.5771Z" fill="white"/>
</g>
<g style="mix-blend-mode:multiply" opacity="0.0196078">
<path d="M14.8556 50.5963C14.8556 49.6896 31.9768 43.4283 48.451 43.4283C64.9253 43.4283 81.0943 49.6896 81.0943 50.5963C81.0943 52.2496 65.0597 52.7552 48.4761 52.7552C31.8925 52.7552 14.8556 52.2496 14.8556 50.5963Z" fill="#FDFDFD"/>
</g>
<g style="mix-blend-mode:multiply" opacity="0.0392157">
<path d="M15.2132 50.6133C15.2132 49.7024 32.1271 43.5733 48.4487 43.5733C64.7703 43.5733 80.7548 49.6981 80.7548 50.6133C80.7548 52.2496 65.0369 52.7466 48.4738 52.7466C31.9107 52.7466 15.2132 52.2496 15.2132 50.6133Z" fill="#FBFBFB"/>
</g>
<g style="mix-blend-mode:multiply" opacity="0.0588235">
<path d="M15.5594 50.6304C15.5594 49.7152 32.2683 43.7291 48.4373 43.7291C64.6063 43.7291 80.404 49.7152 80.404 50.6304C80.404 52.2496 65.0118 52.736 48.4624 52.736C31.913 52.736 15.5594 52.2496 15.5594 50.6304Z" fill="#F9F9F9"/>
</g>
<g style="mix-blend-mode:multiply" opacity="0.0784314">
<path d="M15.908 50.6496C15.908 49.7259 32.4119 43.8806 48.426 43.8806C64.4401 43.8806 80.0533 49.7259 80.0533 50.6496C80.0533 52.2496 64.9822 52.7254 48.451 52.7254C31.9198 52.7254 15.908 52.2496 15.908 50.6496Z" fill="#F7F7F7"/>
</g>
<g style="mix-blend-mode:multiply" opacity="0.0980392">
<path d="M16.2543 50.6666C16.2543 49.7386 32.5531 44.0298 48.4146 44.0298C64.2761 44.0298 79.7025 49.7386 79.7025 50.6666C79.7025 52.2496 64.9526 52.7146 48.4397 52.7146C31.9267 52.7146 16.2543 52.2496 16.2543 50.6666Z" fill="#F5F5F5"/>
</g>
<g style="mix-blend-mode:multiply" opacity="0.117647">
<path d="M16.6005 50.6837C16.6005 49.7515 32.6943 44.1813 48.4054 44.1813C64.1166 44.1813 79.3516 49.7515 79.3516 50.6837C79.3516 52.2496 64.923 52.704 48.4282 52.704C31.9335 52.704 16.6005 52.2496 16.6005 50.6837Z" fill="#F3F3F3"/>
</g>
<g style="mix-blend-mode:multiply" opacity="0.137255">
<path d="M16.949 50.7008C16.949 49.7642 32.8378 44.3328 48.385 44.3328C63.9321 44.3328 79.0031 49.7642 79.0031 50.7008C79.0031 52.2496 64.8934 52.6954 48.4169 52.6954C31.9403 52.6954 16.949 52.2496 16.949 50.7008Z" fill="#F1F1F1"/>
</g>
<g style="mix-blend-mode:multiply" opacity="0.156863">
<path d="M17.2953 50.72C17.2953 49.7749 32.9791 44.4821 48.3827 44.4821C63.7863 44.4821 78.6523 49.7749 78.6523 50.72C78.6523 52.2496 64.8638 52.6848 48.4055 52.6848C31.9472 52.6848 17.2953 52.2496 17.2953 50.72Z" fill="#EFEFEF"/>
</g>
<g style="mix-blend-mode:multiply" opacity="0.176471">
<path d="M17.6438 50.7371C17.6438 49.7877 33.1203 44.6336 48.3713 44.6336C63.6223 44.6336 78.3015 49.7877 78.3015 50.7371C78.3015 52.2496 64.8341 52.6741 48.3918 52.6741C31.9494 52.6741 17.6438 52.2496 17.6438 50.7371Z" fill="#EEEEEE"/>
</g>
<g style="mix-blend-mode:multiply" opacity="0.196078">
<path d="M17.9901 50.7541C17.9901 49.8005 33.2524 44.7808 48.3599 44.7808C63.4674 44.7808 77.9507 49.7962 77.9507 50.7541C77.9507 52.2474 64.8045 52.6741 48.3804 52.6741C31.9563 52.6741 17.9901 52.2496 17.9901 50.7541Z" fill="#ECECEC"/>
</g>
<g style="mix-blend-mode:multiply" opacity="0.215686">
<path d="M18.3386 50.7712C18.3386 49.8133 33.405 44.9344 48.3485 44.9344C63.2919 44.9344 77.6021 49.8133 77.6021 50.7712C77.6021 52.2496 64.7749 52.6549 48.369 52.6549C31.9631 52.6549 18.3386 52.2496 18.3386 50.7712Z" fill="#EAEAEA"/>
</g>
<g style="mix-blend-mode:multiply" opacity="0.235294">
<path d="M18.6848 50.7904C18.6848 49.8261 33.5463 45.0859 48.3394 45.0859C63.1325 45.0859 77.2513 49.8261 77.2513 50.7904C77.2513 52.2496 64.7453 52.6443 48.3576 52.6443C31.9699 52.6443 18.6848 52.2496 18.6848 50.7904Z" fill="#E8E8E8"/>
</g>
<g style="mix-blend-mode:multiply" opacity="0.254902">
<path d="M19.0334 50.8074C19.0334 49.8368 33.6875 45.2352 48.328 45.2352C62.9685 45.2352 76.9006 49.8368 76.9006 50.8074C76.9006 52.2496 64.7157 52.6336 48.3463 52.6336C31.9768 52.6336 19.0334 52.2496 19.0334 50.8074Z" fill="#E6E6E6"/>
</g>
<g style="mix-blend-mode:multiply" opacity="0.27451">
<path d="M19.3796 50.8245C19.3796 49.8496 33.8311 45.3867 48.3098 45.3867C62.7886 45.3867 76.5429 49.8496 76.5429 50.8245C76.5429 52.2496 64.6793 52.6229 48.328 52.6229C31.9768 52.6229 19.3796 52.2496 19.3796 50.8245Z" fill="#E4E4E4"/>
</g>
<g style="mix-blend-mode:multiply" opacity="0.294118">
<path d="M19.7259 50.8437C19.7259 49.8624 33.9723 45.5381 48.3053 45.5381C62.6382 45.5381 76.199 49.8624 76.199 50.8437C76.199 52.2496 64.6565 52.6144 48.3235 52.6144C31.9905 52.6144 19.7259 52.2496 19.7259 50.8437Z" fill="#E2E2E2"/>
</g>
<g style="mix-blend-mode:multiply" opacity="0.313726">
<path d="M20.0744 50.8608C20.0744 49.8752 34.1135 45.6874 48.2938 45.6874C62.4742 45.6874 75.8572 49.8752 75.8572 50.8608C75.8572 52.2496 64.6337 52.6037 48.3189 52.6037C32.0041 52.6037 20.0744 52.2496 20.0744 50.8608Z" fill="#E0E0E0"/>
</g>
<g style="mix-blend-mode:multiply" opacity="0.333333">
<path d="M20.4207 50.88C20.4207 49.8901 34.2547 45.8411 48.2825 45.8411C62.3102 45.8411 75.4996 49.8944 75.4996 50.88C75.4996 52.2517 64.5972 52.5867 48.3007 52.5867C32.0041 52.5867 20.4207 52.2496 20.4207 50.88Z" fill="#DEDEDE"/>
</g>
<g style="mix-blend-mode:multiply" opacity="0.352941">
<path d="M20.7783 50.8949C20.7783 49.8987 34.4073 45.9883 48.2824 45.9883C62.1575 45.9883 75.1624 49.8965 75.1624 50.8949C75.1624 52.2496 64.5813 52.5845 48.3029 52.5845C32.0246 52.5845 20.7783 52.2496 20.7783 50.8949Z" fill="#DCDCDC"/>
</g>
<g style="mix-blend-mode:multiply" opacity="0.372549">
<path d="M21.1154 50.9141C21.1154 49.9114 34.5395 46.1397 48.2619 46.1397C61.9844 46.1397 74.798 49.9114 74.798 50.9141C74.798 52.2496 64.5471 52.5738 48.2779 52.5738C32.0087 52.5738 21.1154 52.2496 21.1154 50.9141Z" fill="#DADADA"/>
</g>
<g style="mix-blend-mode:multiply" opacity="0.392157">
<path d="M21.4617 50.9312C21.4617 49.9243 34.6739 46.2912 48.2483 46.2912C61.8227 46.2912 74.4449 49.9179 74.4449 50.9312C74.4449 52.2496 64.5038 52.5632 48.2619 52.5632C32.02 52.5632 21.4617 52.2496 21.4617 50.9312Z" fill="#D8D8D8"/>
</g>
<g style="mix-blend-mode:multiply" opacity="0.411765">
<path d="M21.8102 50.9483C21.8102 49.9371 34.8219 46.4427 48.2346 46.4427C61.6473 46.4427 74.0941 49.9371 74.0941 50.9483C74.0941 52.2496 64.4742 52.5526 48.2505 52.5526C32.0269 52.5526 21.8102 52.2496 21.8102 50.9483Z" fill="#D6D6D6"/>
</g>
<g style="mix-blend-mode:multiply" opacity="0.431373">
<path d="M22.1588 50.9674C22.1588 49.9477 34.9655 46.592 48.2278 46.592C61.4901 46.592 73.741 49.9477 73.741 50.9674C73.741 52.2474 64.4424 52.544 48.2278 52.544C32.0132 52.544 22.1588 52.2496 22.1588 50.9674Z" fill="#D4D4D4"/>
</g>
<g style="mix-blend-mode:multiply" opacity="0.45098">
<path d="M22.505 50.9845C22.505 49.9605 35.1067 46.7435 48.2164 46.7435C61.3261 46.7435 73.3993 49.9605 73.3993 50.9845C73.3993 52.2496 64.4219 52.5333 48.2346 52.5333C32.0474 52.5333 22.505 52.2496 22.505 50.9845Z" fill="#D2D2D2"/>
</g>
<g style="mix-blend-mode:multiply" opacity="0.470588">
<path d="M22.8513 51.0016C22.8513 49.9733 35.2479 46.8949 48.2073 46.8949C61.1666 46.8949 73.0371 49.9733 73.0371 51.0016C73.0371 52.2496 64.3809 52.5226 48.2073 52.5226C32.0337 52.5226 22.8513 52.2496 22.8513 51.0016Z" fill="#D0D0D0"/>
</g>
<g style="mix-blend-mode:multiply" opacity="0.490196">
<path d="M23.1998 51.0187C23.1998 49.9861 35.3914 47.0443 48.1959 47.0443C61.0003 47.0443 72.6977 49.9861 72.6977 51.0187C72.6977 52.2496 64.3603 52.512 48.2096 52.512C32.0588 52.512 23.1998 52.2496 23.1998 51.0187Z" fill="#CECECE"/>
</g>
<g style="mix-blend-mode:multiply" opacity="0.509804">
<path d="M23.546 51.0379C23.546 49.9989 35.5327 47.1979 48.1845 47.1979C60.8363 47.1979 72.3469 50.0011 72.3469 51.0379C72.3469 52.2496 64.3307 52.5035 48.2004 52.5035C32.0702 52.5035 23.546 52.2496 23.546 51.0379Z" fill="#CDCDCD"/>
</g>
<g style="mix-blend-mode:multiply" opacity="0.529412">
<path d="M23.8945 51.0549C23.8945 50.0096 35.6739 47.3472 48.1731 47.3472C60.6723 47.3472 71.9961 50.0096 71.9961 51.0549C71.9961 52.2496 64.3011 52.4928 48.1845 52.4928C32.0679 52.4928 23.8945 52.2496 23.8945 51.0549Z" fill="#CBCBCB"/>
</g>
<g style="mix-blend-mode:multiply" opacity="0.54902">
<path d="M24.2408 51.072C24.2408 50.0224 35.8151 47.4965 48.1594 47.4965C60.5037 47.4965 71.6453 50.0267 71.6453 51.072C71.6453 52.2496 64.2715 52.4821 48.1822 52.4821C32.0929 52.4821 24.2408 52.2496 24.2408 51.072Z" fill="#C9C9C9"/>
</g>
<g style="mix-blend-mode:multiply" opacity="0.568627">
<path d="M24.5893 51.0933C24.5893 50.0395 35.9586 47.6523 48.1503 47.6523C60.342 47.6523 71.2967 50.0267 71.2967 51.0933C71.2967 52.2539 64.235 52.4779 48.1617 52.4779C32.0884 52.4779 24.5893 52.2496 24.5893 51.0933Z" fill="#C7C7C7"/>
</g>
<g style="mix-blend-mode:multiply" opacity="0.588235">
<path d="M24.9355 51.1082C24.9355 50.0416 36.0976 47.7994 48.1412 47.7994C60.1848 47.7994 70.9459 50.048 70.9459 51.1082C70.9459 52.2496 64.2122 52.4629 48.1503 52.4629C32.0884 52.4629 24.9355 52.2496 24.9355 51.1082Z" fill="#C5C5C5"/>
</g>
<g style="mix-blend-mode:multiply" opacity="0.607843">
<path d="M25.2841 51.1253C25.2841 50.0587 36.2411 47.9488 48.1298 47.9488C60.0185 47.9488 70.5951 50.0587 70.5951 51.1253C70.5951 52.2496 64.1827 52.4523 48.139 52.4523C32.0952 52.4523 25.2841 52.2496 25.2841 51.1253Z" fill="#C3C3C3"/>
</g>
<g style="mix-blend-mode:multiply" opacity="0.627451">
<path d="M25.6304 51.1424C25.6304 50.0757 36.3846 48.1003 48.1185 48.1003C59.8523 48.1003 70.2443 50.0715 70.2443 51.1424C70.2443 52.2496 64.1531 52.4416 48.1276 52.4416C32.1021 52.4416 25.6304 52.2496 25.6304 51.1424Z" fill="#C1C1C1"/>
</g>
<g style="mix-blend-mode:multiply" opacity="0.647059">
<path d="M25.9766 51.1616C25.9766 50.0949 36.5259 48.2517 48.1071 48.2517C59.6882 48.2517 69.8958 50.0842 69.8958 51.1616C69.8958 52.2389 64.1234 52.4416 48.1162 52.4416C32.1089 52.4416 25.9766 52.2496 25.9766 51.1616Z" fill="#BFBFBF"/>
</g>
<g style="mix-blend-mode:multiply" opacity="0.666667">
<path d="M26.3251 51.1787C26.3251 50.0971 36.6671 48.4053 48.0957 48.4053C59.5242 48.4053 69.545 50.112 69.545 51.1787C69.545 52.2453 64.0938 52.4224 48.1048 52.4224C32.1157 52.4224 26.3251 52.2496 26.3251 51.1787Z" fill="#BDBDBD"/>
</g>
<g style="mix-blend-mode:multiply" opacity="0.686275">
<path d="M26.6714 51.1958C26.6714 50.1099 36.8083 48.5526 48.0843 48.5526C59.3602 48.5526 69.1942 50.1099 69.1942 51.1958C69.1942 52.2496 64.0642 52.4118 48.0934 52.4118C32.1226 52.4118 26.6714 52.2496 26.6714 51.1958Z" fill="#BBBBBB"/>
</g>
<g style="mix-blend-mode:multiply" opacity="0.705882">
<path d="M27.0199 51.2128C27.0199 50.1205 36.9518 48.704 48.0751 48.704C59.1984 48.704 68.8434 50.1205 68.8434 51.2128C68.8434 52.2496 64.0346 52.401 48.082 52.401C32.1294 52.401 27.0199 52.2496 27.0199 51.2128Z" fill="#B9B9B9"/>
</g>
<g style="mix-blend-mode:multiply" opacity="0.72549">
<path d="M27.3661 51.232C27.3661 50.1333 37.0931 48.8533 48.0637 48.8533C59.0344 48.8533 68.4948 50.1333 68.4948 51.232C68.4948 52.2496 64.005 52.3925 48.0706 52.3925C32.1362 52.3925 27.3661 52.2496 27.3661 51.232Z" fill="#B7B7B7"/>
</g>
<g style="mix-blend-mode:multiply" opacity="0.745098">
<path d="M27.7147 51.249C27.7147 50.1461 37.2343 49.0048 48.0523 49.0048C58.8704 49.0048 68.144 50.1461 68.144 51.249C68.144 52.2496 63.9753 52.3818 48.0592 52.3818C32.143 52.3818 27.7147 52.2496 27.7147 51.249Z" fill="#B5B5B5"/>
</g>
<g style="mix-blend-mode:multiply" opacity="0.764706">
<path d="M28.0677 51.2661C28.0677 50.1589 37.3824 49.1562 48.0478 49.1562C58.7132 49.1562 67.8 50.1589 67.8 51.2661C67.8 52.2496 63.9525 52.3712 48.0546 52.3712C32.1567 52.3712 28.0677 52.2496 28.0677 51.2661Z" fill="#B3B3B3"/>
</g>
<g style="mix-blend-mode:multiply" opacity="0.784314">
<path d="M28.4095 51.2853C28.4095 50.1696 37.5213 49.3056 48.0296 49.3056C58.5379 49.3056 67.4424 50.1589 67.4424 51.2853C67.4424 52.2496 63.9161 52.352 48.0364 52.352C32.1567 52.352 28.4095 52.2496 28.4095 51.2853Z" fill="#B1B1B1"/>
</g>
<g style="mix-blend-mode:multiply" opacity="0.803922">
<path d="M28.7512 51.3066C28.7512 50.1866 37.6557 49.4613 48.0136 49.4613C58.3715 49.4613 67.087 50.1866 67.087 51.3066C67.087 52.2538 63.8819 52.3562 48.0205 52.3562C32.159 52.3562 28.7512 52.2496 28.7512 51.3066Z" fill="#AFAFAF"/>
</g>
<g style="mix-blend-mode:multiply" opacity="0.823529">
<path d="M29.102 51.3195C29.102 50.1952 37.8015 49.6128 48.0091 49.6128C58.2167 49.6128 66.7431 50.2016 66.7431 51.3195C66.7431 52.2496 63.8569 52.3413 48.0137 52.3413C32.1704 52.3413 29.102 52.2496 29.102 51.3195Z" fill="#ADADAD"/>
</g>
<g style="mix-blend-mode:multiply" opacity="0.843137">
<path d="M29.4505 51.3365C29.4505 50.208 37.945 49.7579 47.9977 49.7579C58.0504 49.7579 66.3923 50.208 66.3923 51.3365C66.3923 52.2496 63.8273 52.3307 48.0023 52.3307C32.1772 52.3307 29.4505 52.2496 29.4505 51.3365Z" fill="#ACACAC"/>
</g>
<g style="mix-blend-mode:multiply" opacity="0.862745">
<path d="M29.7968 51.3557C29.7968 50.2208 38.0863 49.9093 47.9863 49.9093C57.8864 49.9093 66.0415 50.2208 66.0415 51.3557C66.0415 52.2496 63.7977 52.3221 47.9886 52.3221C32.1795 52.3221 29.7968 52.2496 29.7968 51.3557Z" fill="#AAAAAA"/>
</g>
<g style="mix-blend-mode:multiply" opacity="0.882353">
<path d="M30.1453 51.3728C30.1453 50.2315 38.2275 50.0587 47.9749 50.0587C57.7223 50.0587 65.6906 50.2315 65.6906 51.3728C65.6906 52.2496 63.768 52.3115 47.9772 52.3115C32.1863 52.3115 30.1453 52.2496 30.1453 51.3728Z" fill="#A8A8A8"/>
</g>
<g style="mix-blend-mode:multiply" opacity="0.901961">
<path d="M30.4915 51.3899C30.4915 50.2443 38.3687 50.2101 47.9635 50.2101C57.5583 50.2101 65.3421 50.2443 65.3421 51.3899C65.3421 52.2432 63.7475 52.3008 47.9658 52.3008C32.184 52.3008 30.4915 52.2496 30.4915 51.3899Z" fill="#A6A6A6"/>
</g>
<g style="mix-blend-mode:multiply" opacity="0.921569">
<path d="M30.8401 51.4069C30.8401 50.2571 38.5123 50.3616 47.9522 50.3616C57.3921 50.3616 64.9914 50.2571 64.9914 51.4069C64.9914 52.2496 63.7089 52.2901 47.9544 52.2901C32.2 52.2901 30.8401 52.2496 30.8401 51.4069Z" fill="#A4A4A4"/>
</g>
<g style="mix-blend-mode:multiply" opacity="0.941176">
<path d="M31.1863 51.4261C31.1863 50.2699 38.6535 50.5109 47.9431 50.5109C57.2326 50.5109 64.6405 50.2699 64.6405 51.4261C64.6405 52.2496 63.6792 52.2795 47.9431 52.2795C32.2069 52.2795 31.1863 52.2496 31.1863 51.4261Z" fill="#A2A2A2"/>
</g>
<g style="mix-blend-mode:multiply" opacity="0.960784">
<path d="M31.5349 51.4432C31.5349 50.2805 38.7947 50.6624 47.9362 50.6624C57.0777 50.6624 64.2875 50.2805 64.2875 51.4432C64.2875 52.2496 63.6473 52.2709 47.9294 52.2709C32.2114 52.2709 31.5349 52.2496 31.5349 51.4432Z" fill="#A0A0A0"/>
</g>
<g style="mix-blend-mode:multiply" opacity="0.980392">
<path d="M31.8811 51.4603C31.8811 50.2933 38.9428 50.8203 47.9203 50.8203C56.8977 50.8203 63.9389 50.2997 63.9389 51.4603C63.9389 52.2496 63.62 52.2603 47.9203 52.2603C32.2205 52.2603 31.8811 52.2496 31.8811 51.4603Z" fill="#9E9E9E"/>
</g>
<g style="mix-blend-mode:multiply">
<path d="M32.2274 51.4794C32.2274 50.3061 39.0795 50.9632 47.9089 50.9632C56.7383 50.9632 63.5904 50.3061 63.5904 51.4794C63.5904 52.2496 63.5904 52.2496 47.9089 52.2496C32.2274 52.2496 32.2274 52.2496 32.2274 51.4794Z" fill="#9C9C9C"/>
</g>
</g>
<path fill-rule="evenodd" clip-rule="evenodd" d="M69.3799 75.9996C69.3799 74.4292 68.1989 73.1644 66.6265 73.1644H59.6058V78.8461H66.5297C68.1044 78.8461 69.3799 77.57 69.3799 75.9996V75.9996ZM59.6058 69.0216H65.1913C66.7007 68.9475 67.9042 67.7096 67.9042 66.1841C67.9042 64.616 66.6287 63.3399 65.0541 63.3399H59.6058V69.0216ZM73.9689 76.5118C73.9689 79.7695 71.0692 82.926 66.3498 82.926H56.6162H55.1405V59.2555H64.8741C69.5936 59.2555 72.4932 62.412 72.4932 65.6719C72.4932 67.7163 71.3932 69.5293 69.6858 70.7021C72.2097 71.7063 73.9689 73.926 73.9689 76.5118V76.5118ZM59.2413 17.484C60.1434 17.484 60.8767 18.2164 60.8767 19.1196C60.8767 20.0205 60.1434 20.7506 59.2413 20.7506C58.337 20.7506 57.606 20.0205 57.606 19.1196C57.606 18.2164 58.337 17.484 59.2413 17.484V17.484ZM64.8291 28.5194C57.9299 30.6672 63.6121 35.6772 64.449 38.335C65.4185 41.4218 62.9463 45.4747 57.0233 45.4747H49.4695V40.1278H58.4248L55.6399 37.3891H49.4695V34.2506C56.5127 32.8083 57.363 25.7673 62.1927 22.3345C64.377 20.7843 68.2754 20.7776 68.2754 20.7776C68.2754 20.7776 62.8833 16.7921 62.3029 16.3607C61.7248 15.9339 60.4088 15.0217 58.8589 15.0217C56.9873 15.0217 54.4274 17.7334 52.6683 18.8567C48.9004 21.2673 40.6065 25.1248 25.8969 12.4718C25.5483 12.173 25.2446 12.2943 25.1389 12.6291C24.7654 13.8085 23.364 21.5122 27.2826 21.838C39.1623 22.822 37.122 32.4555 45.8006 34.2394V37.3891H39.6302L36.8453 40.1278H45.8006V45.4747H38.2467C32.3215 45.4747 29.8493 41.4218 30.8211 38.335C31.6579 35.6772 37.3379 30.6672 30.4409 28.5194C32.6297 34.4842 23.2785 33.7518 23.2785 42.9271C23.2785 50.0915 31.5387 52.7178 38.2467 52.7178H57.0233C63.7314 52.7178 71.9916 50.0915 71.9916 42.9271C71.9916 33.7518 62.6404 34.4842 64.8291 28.5194V28.5194ZM33.8894 73.261L30.9426 65.9707L27.9777 73.261H33.8894ZM24.1356 82.9282H19.2384L28.6121 59.2555H32.0021C32.7917 59.2555 33.5183 59.7588 33.8084 60.4912L42.6895 82.9282H37.7158L35.5203 77.3768H26.3041L24.1356 82.9282ZM51.4941 81.8453V81.8498V82.926H46.1222C45.6543 82.926 45.2764 82.5485 45.2764 82.0835V63.1647C45.2764 61.965 44.8535 60.9405 44.2574 60.5204C44.1899 60.4822 44.1202 60.4485 44.0482 60.4193L43.8457 60.3406V60.3362V59.2555H49.2198C49.6855 59.2555 50.0634 59.633 50.0634 60.098L50.0656 79.0168C50.0656 80.2165 50.4863 81.241 51.0824 81.6634C51.1499 81.6993 51.2196 81.7352 51.2938 81.7622L51.4941 81.8453Z" fill="white"/>
</g>
<defs>
<linearGradient id="paint0_linear_1_424" x1="47.7697" y1="208.229" x2="207.768" y2="48.2303" gradientUnits="userSpaceOnUse">
<stop offset="0.2" stop-color="#512D6D"/>
<stop offset="0.27" stop-color="#5C2D72"/>
<stop offset="0.41" stop-color="#7B2E7F"/>
<stop offset="0.58" stop-color="#AB2F93"/>
<stop offset="0.66" stop-color="#C42F9E"/>
<stop offset="0.68" stop-color="#C534A1"/>
<stop offset="0.74" stop-color="#CA46A9"/>
<stop offset="0.78" stop-color="#CC4CAC"/>
</linearGradient>
<clipPath id="clip0_1_424">
<rect width="96" height="96" rx="4" fill="white"/>
</clipPath>
</defs>
</svg>
